<?xml version="1.0" encoding="UTF-8" standalone="no"?>
<!DOCTYPE svg PUBLIC "-//W3C//DTD SVG 1.1//EN"
 "http://www.w3.org/Graphics/SVG/1.1/DTD/svg11.dtd">
<!-- Generated by graphviz version 2.47.0 (20210316.0004)
 -->
<!-- Title: dependencies Pages: 1 -->
<svg width="7025pt" height="284pt"
 viewBox="0.00 0.00 7025.00 284.00" xmlns="http://www.w3.org/2000/svg" xmlns:xlink="http://www.w3.org/1999/xlink">
<g id="graph0" class="graph" transform="scale(1 1) rotate(0) translate(4 280)">
<title>dependencies</title>
<polygon fill="white" stroke="transparent" points="-4,4 -4,-280 7021,-280 7021,4 -4,4"/>
<text text-anchor="start" x="3487.51" y="-42.4" font-family="Times-12" font-weight="bold" font-size="14.00">Legend</text>
<polygon fill="#ffffb3" stroke="transparent" points="3274.5,-10 3274.5,-30 3294.5,-30 3294.5,-10 3274.5,-10"/>
<text text-anchor="start" x="3298.13" y="-15.4" font-family="Times-12" font-size="14.00"> &#160;Declarations</text>
<polygon fill="#8dd3c7" stroke="transparent" points="3387.5,-10 3387.5,-30 3407.5,-30 3407.5,-10 3387.5,-10"/>
<text text-anchor="start" x="3411.23" y="-15.4" font-family="Times-12" font-size="14.00"> &#160;Module</text>
<polygon fill="#80b1d3" stroke="transparent" points="3473.5,-10 3473.5,-30 3493.5,-30 3493.5,-10 3473.5,-10"/>
<text text-anchor="start" x="3497.28" y="-15.4" font-family="Times-12" font-size="14.00"> &#160;Bootstrap</text>
<polygon fill="#fdb462" stroke="transparent" points="3570.5,-10 3570.5,-30 3590.5,-30 3590.5,-10 3570.5,-10"/>
<text text-anchor="start" x="3594.17" y="-15.4" font-family="Times-12" font-size="14.00"> &#160;Providers</text>
<polygon fill="#fb8072" stroke="transparent" points="3666.5,-10 3666.5,-30 3686.5,-30 3686.5,-10 3666.5,-10"/>
<text text-anchor="start" x="3690.23" y="-15.4" font-family="Times-12" font-size="14.00"> &#160;Exports</text>
<g id="clust1" class="cluster">
<title>cluster_AdminModule</title>
<polygon fill="none" stroke="black" stroke-dasharray="1,5" points="8,-70 8,-268 7009,-268 7009,-70 8,-70"/>
</g>
<g id="clust51" class="cluster">
<title>cluster_AdminModule_exports</title>
<polygon fill="none" stroke="black" points="3250,-208 3250,-260 3706,-260 3706,-208 3250,-208"/>
</g>
<g id="clust50" class="cluster">
<title>cluster_AdminModule_imports</title>
<polygon fill="none" stroke="black" points="6841,-78 6841,-130 7001,-130 7001,-78 6841,-78"/>
</g>
<g id="clust2" class="cluster">
<title>cluster_AdminModule_declarations</title>
<polygon fill="none" stroke="black" points="16,-78 16,-130 6833,-130 6833,-78 16,-78"/>
</g>
<!-- AdminComponent -->
<g id="node1" class="node">
<title>AdminComponent</title>
<polygon fill="#ffffb3" stroke="black" points="6825.22,-122 6704.78,-122 6704.78,-86 6825.22,-86 6825.22,-122"/>
<text text-anchor="middle" x="6765" y="-99.8" font-family="Times,serif" font-size="14.00">AdminComponent</text>
</g>
<!-- AdminModule -->
<g id="node48" class="node">
<title>AdminModule</title>
<polygon fill="#8dd3c7" stroke="black" points="3531.44,-187 3528.44,-191 3507.44,-191 3504.44,-187 3432.56,-187 3432.56,-151 3531.44,-151 3531.44,-187"/>
<text text-anchor="middle" x="3482" y="-164.8" font-family="Times,serif" font-size="14.00">AdminModule</text>
</g>
<!-- AdminComponent&#45;&gt;AdminModule -->
<g id="edge1" class="edge">
<title>AdminComponent&#45;&gt;AdminModule</title>
<path fill="none" stroke="black" d="M6765,-122.32C6765,-145.66 6765,-183 6765,-183 6765,-183 3541.28,-183 3541.28,-183"/>
<polygon fill="black" stroke="black" points="3541.28,-179.5 3531.28,-183 3541.28,-186.5 3541.28,-179.5"/>
</g>
<!-- AlertDocumentComponent -->
<g id="node2" class="node">
<title>AlertDocumentComponent</title>
<polygon fill="#ffffb3" stroke="black" points="6687.41,-122 6518.59,-122 6518.59,-86 6687.41,-86 6687.41,-122"/>
<text text-anchor="middle" x="6603" y="-99.8" font-family="Times,serif" font-size="14.00">AlertDocumentComponent</text>
</g>
<!-- AlertDocumentComponent&#45;&gt;AdminModule -->
<g id="edge2" class="edge">
<title>AlertDocumentComponent&#45;&gt;AdminModule</title>
<path fill="none" stroke="black" d="M6603,-122.09C6603,-145.13 6603,-182 6603,-182 6603,-182 3541.34,-182 3541.34,-182"/>
<polygon fill="black" stroke="black" points="3541.34,-178.5 3531.34,-182 3541.34,-185.5 3541.34,-178.5"/>
</g>
<!-- BillingComponent -->
<g id="node3" class="node">
<title>BillingComponent</title>
<polygon fill="#ffffb3" stroke="black" points="6501.23,-122 6380.77,-122 6380.77,-86 6501.23,-86 6501.23,-122"/>
<text text-anchor="middle" x="6441" y="-99.8" font-family="Times,serif" font-size="14.00">BillingComponent</text>
</g>
<!-- BillingComponent&#45;&gt;AdminModule -->
<g id="edge3" class="edge">
<title>BillingComponent&#45;&gt;AdminModule</title>
<path fill="none" stroke="black" d="M6441,-122.25C6441,-145.02 6441,-181 6441,-181 6441,-181 3541.5,-181 3541.5,-181"/>
<polygon fill="black" stroke="black" points="3541.5,-177.5 3531.5,-181 3541.5,-184.5 3541.5,-177.5"/>
</g>
<!-- BoatComponent -->
<g id="node4" class="node">
<title>BoatComponent</title>
<polygon fill="#ffffb3" stroke="black" points="6362.77,-122 6255.23,-122 6255.23,-86 6362.77,-86 6362.77,-122"/>
<text text-anchor="middle" x="6309" y="-99.8" font-family="Times,serif" font-size="14.00">BoatComponent</text>
</g>
<!-- BoatComponent&#45;&gt;AdminModule -->
<g id="edge4" class="edge">
<title>BoatComponent&#45;&gt;AdminModule</title>
<path fill="none" stroke="black" d="M6309,-122.16C6309,-144.35 6309,-179 6309,-179 6309,-179 3541.37,-179 3541.37,-179"/>
<polygon fill="black" stroke="black" points="3541.37,-175.5 3531.37,-179 3541.37,-182.5 3541.37,-175.5"/>
</g>
<!-- BoatsComponent -->
<g id="node5" class="node">
<title>BoatsComponent</title>
<polygon fill="#ffffb3" stroke="black" points="6237.72,-122 6124.28,-122 6124.28,-86 6237.72,-86 6237.72,-122"/>
<text text-anchor="middle" x="6181" y="-99.8" font-family="Times,serif" font-size="14.00">BoatsComponent</text>
</g>
<!-- BoatsComponent&#45;&gt;AdminModule -->
<g id="edge5" class="edge">
<title>BoatsComponent&#45;&gt;AdminModule</title>
<path fill="none" stroke="black" d="M6181,-122.29C6181,-144.21 6181,-178 6181,-178 6181,-178 3541.44,-178 3541.44,-178"/>
<polygon fill="black" stroke="black" points="3541.44,-174.5 3531.44,-178 3541.44,-181.5 3541.44,-174.5"/>
</g>
<!-- ChatComponent -->
<g id="node6" class="node">
<title>ChatComponent</title>
<polygon fill="#ffffb3" stroke="black" points="6106.77,-122 5999.23,-122 5999.23,-86 6106.77,-86 6106.77,-122"/>
<text text-anchor="middle" x="6053" y="-99.8" font-family="Times,serif" font-size="14.00">ChatComponent</text>
</g>
<!-- ChatComponent&#45;&gt;AdminModule -->
<g id="edge6" class="edge">
<title>ChatComponent&#45;&gt;AdminModule</title>
<path fill="none" stroke="black" d="M6053,-122.17C6053,-143.5 6053,-176 6053,-176 6053,-176 3541.35,-176 3541.35,-176"/>
<polygon fill="black" stroke="black" points="3541.35,-172.5 3531.35,-176 3541.35,-179.5 3541.35,-172.5"/>
</g>
<!-- ChessComponent -->
<g id="node7" class="node">
<title>ChessComponent</title>
<polygon fill="#ffffb3" stroke="black" points="5981.27,-122 5866.73,-122 5866.73,-86 5981.27,-86 5981.27,-122"/>
<text text-anchor="middle" x="5924" y="-99.8" font-family="Times,serif" font-size="14.00">ChessComponent</text>
</g>
<!-- ChessComponent&#45;&gt;AdminModule -->
<g id="edge7" class="edge">
<title>ChessComponent&#45;&gt;AdminModule</title>
<path fill="none" stroke="black" d="M5924,-122.28C5924,-143.32 5924,-175 5924,-175 5924,-175 3541.33,-175 3541.33,-175"/>
<polygon fill="black" stroke="black" points="3541.33,-171.5 3531.33,-175 3541.33,-178.5 3541.33,-171.5"/>
</g>
<!-- ClientComponent -->
<g id="node8" class="node">
<title>ClientComponent</title>
<polygon fill="#ffffb3" stroke="black" points="5848.56,-122 5733.44,-122 5733.44,-86 5848.56,-86 5848.56,-122"/>
<text text-anchor="middle" x="5791" y="-99.8" font-family="Times,serif" font-size="14.00">ClientComponent</text>
</g>
<!-- ClientComponent&#45;&gt;AdminModule -->
<g id="edge8" class="edge">
<title>ClientComponent&#45;&gt;AdminModule</title>
<path fill="none" stroke="black" d="M5791,-122.03C5791,-142.77 5791,-174 5791,-174 5791,-174 3541.29,-174 3541.29,-174"/>
<polygon fill="black" stroke="black" points="3541.3,-170.5 3531.29,-174 3541.29,-177.5 3541.3,-170.5"/>
</g>
<!-- ClientJobsComponent -->
<g id="node9" class="node">
<title>ClientJobsComponent</title>
<polygon fill="#ffffb3" stroke="black" points="5715.45,-122 5574.55,-122 5574.55,-86 5715.45,-86 5715.45,-122"/>
<text text-anchor="middle" x="5645" y="-99.8" font-family="Times,serif" font-size="14.00">ClientJobsComponent</text>
</g>
<!-- ClientJobsComponent&#45;&gt;AdminModule -->
<g id="edge9" class="edge">
<title>ClientJobsComponent&#45;&gt;AdminModule</title>
<path fill="none" stroke="black" d="M5645,-122.22C5645,-142.37 5645,-172 5645,-172 5645,-172 3541.24,-172 3541.24,-172"/>
<polygon fill="black" stroke="black" points="3541.24,-168.5 3531.24,-172 3541.24,-175.5 3541.24,-168.5"/>
</g>
<!-- ClientPersonalComponent -->
<g id="node10" class="node">
<title>ClientPersonalComponent</title>
<polygon fill="#ffffb3" stroke="black" points="5556.76,-122 5393.24,-122 5393.24,-86 5556.76,-86 5556.76,-122"/>
<text text-anchor="middle" x="5475" y="-99.8" font-family="Times,serif" font-size="14.00">ClientPersonalComponent</text>
</g>
<!-- ClientPersonalComponent&#45;&gt;AdminModule -->
<g id="edge10" class="edge">
<title>ClientPersonalComponent&#45;&gt;AdminModule</title>
<path fill="none" stroke="black" d="M5475,-122.31C5475,-142.15 5475,-171 5475,-171 5475,-171 3541.27,-171 3541.27,-171"/>
<polygon fill="black" stroke="black" points="3541.27,-167.5 3531.27,-171 3541.27,-174.5 3541.27,-167.5"/>
</g>
<!-- ConnectionComponent -->
<g id="node11" class="node">
<title>ConnectionComponent</title>
<polygon fill="#ffffb3" stroke="black" points="5374.88,-122 5229.12,-122 5229.12,-86 5374.88,-86 5374.88,-122"/>
<text text-anchor="middle" x="5302" y="-99.8" font-family="Times,serif" font-size="14.00">ConnectionComponent</text>
</g>
<!-- ConnectionComponent&#45;&gt;AdminModule -->
<g id="edge11" class="edge">
<title>ConnectionComponent&#45;&gt;AdminModule</title>
<path fill="none" stroke="black" d="M5302,-122.11C5302,-141.34 5302,-169 5302,-169 5302,-169 3541.62,-169 3541.62,-169"/>
<polygon fill="black" stroke="black" points="3541.62,-165.5 3531.62,-169 3541.62,-172.5 3541.62,-165.5"/>
</g>
<!-- CreationComponent -->
<g id="node12" class="node">
<title>CreationComponent</title>
<polygon fill="#ffffb3" stroke="black" points="5210.54,-122 5081.46,-122 5081.46,-86 5210.54,-86 5210.54,-122"/>
<text text-anchor="middle" x="5146" y="-99.8" font-family="Times,serif" font-size="14.00">CreationComponent</text>
</g>
<!-- CreationComponent&#45;&gt;AdminModule -->
<g id="edge12" class="edge">
<title>CreationComponent&#45;&gt;AdminModule</title>
<path fill="none" stroke="black" d="M5146,-122.17C5146,-141.09 5146,-168 5146,-168 5146,-168 3541.35,-168 3541.35,-168"/>
<polygon fill="black" stroke="black" points="3541.35,-164.5 3531.35,-168 3541.35,-171.5 3541.35,-164.5"/>
</g>
<!-- DashboardComponent -->
<g id="node13" class="node">
<title>DashboardComponent</title>
<polygon fill="#ffffb3" stroke="black" points="5062.97,-122 4921.03,-122 4921.03,-86 5062.97,-86 5062.97,-122"/>
<text text-anchor="middle" x="4992" y="-99.8" font-family="Times,serif" font-size="14.00">DashboardComponent</text>
</g>
<!-- DashboardComponent&#45;&gt;AdminModule -->
<g id="edge13" class="edge">
<title>DashboardComponent&#45;&gt;AdminModule</title>
<path fill="none" stroke="black" d="M4992,-122.22C4992,-140.83 4992,-167 4992,-167 4992,-167 3541.38,-167 3541.38,-167"/>
<polygon fill="black" stroke="black" points="3541.38,-163.5 3531.38,-167 3541.38,-170.5 3541.38,-163.5"/>
</g>
<!-- DataComponent -->
<g id="node14" class="node">
<title>DataComponent</title>
<polygon fill="#ffffb3" stroke="black" points="4902.76,-122 4795.24,-122 4795.24,-86 4902.76,-86 4902.76,-122"/>
<text text-anchor="middle" x="4849" y="-99.8" font-family="Times,serif" font-size="14.00">DataComponent</text>
</g>
<!-- DataComponent&#45;&gt;AdminModule -->
<g id="edge14" class="edge">
<title>DataComponent&#45;&gt;AdminModule</title>
<path fill="none" stroke="black" d="M4849,-122.3C4849,-140.27 4849,-165 4849,-165 4849,-165 3541.46,-165 3541.46,-165"/>
<polygon fill="black" stroke="black" points="3541.46,-161.5 3531.46,-165 3541.46,-168.5 3541.46,-161.5"/>
</g>
<!-- DegreesComponent -->
<g id="node15" class="node">
<title>DegreesComponent</title>
<polygon fill="#ffffb3" stroke="black" points="4777.69,-122 4650.31,-122 4650.31,-86 4777.69,-86 4777.69,-122"/>
<text text-anchor="middle" x="4714" y="-99.8" font-family="Times,serif" font-size="14.00">DegreesComponent</text>
</g>
<!-- DegreesComponent&#45;&gt;AdminModule -->
<g id="edge15" class="edge">
<title>DegreesComponent&#45;&gt;AdminModule</title>
<path fill="none" stroke="black" d="M4714,-122C4714,-139.68 4714,-164 4714,-164 4714,-164 3541.44,-164 3541.44,-164"/>
<polygon fill="black" stroke="black" points="3541.44,-160.5 3531.44,-164 3541.44,-167.5 3541.44,-160.5"/>
</g>
<!-- DetailComponent -->
<g id="node16" class="node">
<title>DetailComponent</title>
<polygon fill="#ffffb3" stroke="black" points="4632.54,-122 4517.46,-122 4517.46,-86 4632.54,-86 4632.54,-122"/>
<text text-anchor="middle" x="4575" y="-99.8" font-family="Times,serif" font-size="14.00">DetailComponent</text>
</g>
<!-- DetailComponent&#45;&gt;AdminModule -->
<g id="edge16" class="edge">
<title>DetailComponent&#45;&gt;AdminModule</title>
<path fill="none" stroke="black" d="M4575,-122.02C4575,-139.37 4575,-163 4575,-163 4575,-163 3541.45,-163 3541.45,-163"/>
<polygon fill="black" stroke="black" points="3541.45,-159.5 3531.45,-163 3541.45,-166.5 3541.45,-159.5"/>
</g>
<!-- DevisComponent -->
<g id="node17" class="node">
<title>DevisComponent</title>
<polygon fill="#ffffb3" stroke="black" points="4498.99,-122 4385.01,-122 4385.01,-86 4498.99,-86 4498.99,-122"/>
<text text-anchor="middle" x="4442" y="-99.8" font-family="Times,serif" font-size="14.00">DevisComponent</text>
</g>
<!-- DevisComponent&#45;&gt;AdminModule -->
<g id="edge17" class="edge">
<title>DevisComponent&#45;&gt;AdminModule</title>
<path fill="none" stroke="black" d="M4442,-122.04C4442,-138.73 4442,-161 4442,-161 4442,-161 3541.26,-161 3541.26,-161"/>
<polygon fill="black" stroke="black" points="3541.26,-157.5 3531.26,-161 3541.26,-164.5 3541.26,-157.5"/>
</g>
<!-- DocumentsComponent -->
<g id="node18" class="node">
<title>DocumentsComponent</title>
<polygon fill="#ffffb3" stroke="black" points="4366.59,-122 4221.41,-122 4221.41,-86 4366.59,-86 4366.59,-122"/>
<text text-anchor="middle" x="4294" y="-99.8" font-family="Times,serif" font-size="14.00">DocumentsComponent</text>
</g>
<!-- DocumentsComponent&#45;&gt;AdminModule -->
<g id="edge18" class="edge">
<title>DocumentsComponent&#45;&gt;AdminModule</title>
<path fill="none" stroke="black" d="M4294,-122.03C4294,-138.4 4294,-160 4294,-160 4294,-160 3541.27,-160 3541.27,-160"/>
<polygon fill="black" stroke="black" points="3541.27,-156.5 3531.27,-160 3541.27,-163.5 3541.27,-156.5"/>
</g>
<!-- FavorisComponent -->
<g id="node19" class="node">
<title>FavorisComponent</title>
<polygon fill="#ffffb3" stroke="black" points="4203.83,-122 4080.17,-122 4080.17,-86 4203.83,-86 4203.83,-122"/>
<text text-anchor="middle" x="4142" y="-99.8" font-family="Times,serif" font-size="14.00">FavorisComponent</text>
</g>
<!-- FavorisComponent&#45;&gt;AdminModule -->
<g id="edge19" class="edge">
<title>FavorisComponent&#45;&gt;AdminModule</title>
<path fill="none" stroke="black" d="M4142,-122.28C4142,-137.95 4142,-158 4142,-158 4142,-158 3541.34,-158 3541.34,-158"/>
<polygon fill="black" stroke="black" points="3541.34,-154.5 3531.34,-158 3541.34,-161.5 3541.34,-154.5"/>
</g>
<!-- FilterPipe -->
<g id="node20" class="node">
<title>FilterPipe</title>
<polygon fill="#ffffb3" stroke="black" points="4062.72,-122 3991.28,-122 3991.28,-86 4062.72,-86 4062.72,-122"/>
<text text-anchor="middle" x="4027" y="-99.8" font-family="Times,serif" font-size="14.00">FilterPipe</text>
</g>
<!-- FilterPipe&#45;&gt;AdminModule -->
<g id="edge20" class="edge">
<title>FilterPipe&#45;&gt;AdminModule</title>
<path fill="none" stroke="black" d="M4027,-122.24C4027,-137.57 4027,-157 4027,-157 4027,-157 3541.33,-157 3541.33,-157"/>
<polygon fill="black" stroke="black" points="3541.33,-153.5 3531.33,-157 3541.33,-160.5 3541.33,-153.5"/>
</g>
<!-- FinanceComponent -->
<g id="node21" class="node">
<title>FinanceComponent</title>
<polygon fill="#ffffb3" stroke="black" points="3973.65,-122 3848.35,-122 3848.35,-86 3973.65,-86 3973.65,-122"/>
<text text-anchor="middle" x="3911" y="-99.8" font-family="Times,serif" font-size="14.00">FinanceComponent</text>
</g>
<!-- FinanceComponent&#45;&gt;AdminModule -->
<g id="edge21" class="edge">
<title>FinanceComponent&#45;&gt;AdminModule</title>
<path fill="none" stroke="black" d="M3911,-122.19C3911,-137.18 3911,-156 3911,-156 3911,-156 3541.63,-156 3541.63,-156"/>
<polygon fill="black" stroke="black" points="3541.63,-152.5 3531.63,-156 3541.63,-159.5 3541.63,-152.5"/>
</g>
<!-- FollowUpComponent -->
<g id="node22" class="node">
<title>FollowUpComponent</title>
<polygon fill="#ffffb3" stroke="black" points="3830.11,-122 3691.89,-122 3691.89,-86 3830.11,-86 3830.11,-122"/>
<text text-anchor="middle" x="3761" y="-99.8" font-family="Times,serif" font-size="14.00">FollowUpComponent</text>
</g>
<!-- FollowUpComponent&#45;&gt;AdminModule -->
<g id="edge22" class="edge">
<title>FollowUpComponent&#45;&gt;AdminModule</title>
<path fill="none" stroke="black" d="M3764.2,-122.05C3764.2,-136.37 3764.2,-154 3764.2,-154 3764.2,-154 3541.48,-154 3541.48,-154"/>
<polygon fill="black" stroke="black" points="3541.48,-150.5 3531.48,-154 3541.48,-157.5 3541.48,-150.5"/>
</g>
<!-- HarborComponent -->
<g id="node23" class="node">
<title>HarborComponent</title>
<polygon fill="#ffffb3" stroke="black" points="3673.47,-122 3552.53,-122 3552.53,-86 3673.47,-86 3673.47,-122"/>
<text text-anchor="middle" x="3613" y="-99.8" font-family="Times,serif" font-size="14.00">HarborComponent</text>
</g>
<!-- HarborComponent&#45;&gt;AdminModule -->
<g id="edge23" class="edge">
<title>HarborComponent&#45;&gt;AdminModule</title>
<path fill="none" stroke="black" d="M3560.08,-122.25C3560.08,-136.18 3560.08,-153 3560.08,-153 3560.08,-153 3541.45,-153 3541.45,-153"/>
<polygon fill="black" stroke="black" points="3541.45,-149.5 3531.45,-153 3541.45,-156.5 3541.45,-149.5"/>
</g>
<!-- InfoComponent -->
<g id="node24" class="node">
<title>InfoComponent</title>
<polygon fill="#ffffb3" stroke="black" points="3534.15,-122 3429.85,-122 3429.85,-86 3534.15,-86 3534.15,-122"/>
<text text-anchor="middle" x="3482" y="-99.8" font-family="Times,serif" font-size="14.00">InfoComponent</text>
</g>
<!-- InfoComponent&#45;&gt;AdminModule -->
<g id="edge24" class="edge">
<title>InfoComponent&#45;&gt;AdminModule</title>
<path fill="none" stroke="black" d="M3482,-122.11C3482,-122.11 3482,-140.99 3482,-140.99"/>
<polygon fill="black" stroke="black" points="3478.5,-140.99 3482,-150.99 3485.5,-140.99 3478.5,-140.99"/>
</g>
<!-- JobComponent -->
<g id="node25" class="node">
<title>JobComponent</title>
<polygon fill="#ffffb3" stroke="black" points="3411.28,-122 3310.72,-122 3310.72,-86 3411.28,-86 3411.28,-122"/>
<text text-anchor="middle" x="3361" y="-99.8" font-family="Times,serif" font-size="14.00">JobComponent</text>
</g>
<!-- JobComponent&#45;&gt;AdminModule -->
<g id="edge25" class="edge">
<title>JobComponent&#45;&gt;AdminModule</title>
<path fill="none" stroke="black" d="M3401.29,-122.05C3401.29,-136.37 3401.29,-154 3401.29,-154 3401.29,-154 3422.73,-154 3422.73,-154"/>
<polygon fill="black" stroke="black" points="3422.73,-157.5 3432.73,-154 3422.73,-150.5 3422.73,-157.5"/>
</g>
<!-- JobComponent&#45;&gt;AdminModule -->
<g id="edge26" class="edge">
<title>JobComponent&#45;&gt;AdminModule</title>
<path fill="none" stroke="black" d="M3406.34,-122.25C3406.34,-136.18 3406.34,-153 3406.34,-153 3406.34,-153 3422.38,-153 3422.38,-153"/>
<polygon fill="black" stroke="black" points="3422.38,-156.5 3432.38,-153 3422.38,-149.5 3422.38,-156.5"/>
</g>
<!-- JobsComponent -->
<g id="node26" class="node">
<title>JobsComponent</title>
<polygon fill="#ffffb3" stroke="black" points="3293.22,-122 3186.78,-122 3186.78,-86 3293.22,-86 3293.22,-122"/>
<text text-anchor="middle" x="3240" y="-99.8" font-family="Times,serif" font-size="14.00">JobsComponent</text>
</g>
<!-- JobsComponent&#45;&gt;AdminModule -->
<g id="edge27" class="edge">
<title>JobsComponent&#45;&gt;AdminModule</title>
<path fill="none" stroke="black" d="M3275.43,-122.19C3275.43,-137.18 3275.43,-156 3275.43,-156 3275.43,-156 3422.52,-156 3422.52,-156"/>
<polygon fill="black" stroke="black" points="3422.52,-159.5 3432.52,-156 3422.52,-152.5 3422.52,-159.5"/>
</g>
<!-- ManagementComponent -->
<g id="node27" class="node">
<title>ManagementComponent</title>
<polygon fill="#ffffb3" stroke="black" points="3169.42,-122 3014.58,-122 3014.58,-86 3169.42,-86 3169.42,-122"/>
<text text-anchor="middle" x="3092" y="-99.8" font-family="Times,serif" font-size="14.00">ManagementComponent</text>
</g>
<!-- ManagementComponent&#45;&gt;AdminModule -->
<g id="edge28" class="edge">
<title>ManagementComponent&#45;&gt;AdminModule</title>
<path fill="none" stroke="black" d="M3092,-122.24C3092,-137.57 3092,-157 3092,-157 3092,-157 3422.61,-157 3422.61,-157"/>
<polygon fill="black" stroke="black" points="3422.61,-160.5 3432.61,-157 3422.61,-153.5 3422.61,-160.5"/>
</g>
<!-- MatchingComponent -->
<g id="node28" class="node">
<title>MatchingComponent</title>
<polygon fill="#ffffb3" stroke="black" points="2996.49,-122 2861.51,-122 2861.51,-86 2996.49,-86 2996.49,-122"/>
<text text-anchor="middle" x="2929" y="-99.8" font-family="Times,serif" font-size="14.00">MatchingComponent</text>
</g>
<!-- MatchingComponent&#45;&gt;AdminModule -->
<g id="edge29" class="edge">
<title>MatchingComponent&#45;&gt;AdminModule</title>
<path fill="none" stroke="black" d="M2929,-122.28C2929,-137.95 2929,-158 2929,-158 2929,-158 3422.44,-158 3422.44,-158"/>
<polygon fill="black" stroke="black" points="3422.44,-161.5 3432.44,-158 3422.44,-154.5 3422.44,-161.5"/>
</g>
<!-- ModelComponent -->
<g id="node29" class="node">
<title>ModelComponent</title>
<polygon fill="#ffffb3" stroke="black" points="2843.88,-122 2726.12,-122 2726.12,-86 2843.88,-86 2843.88,-122"/>
<text text-anchor="middle" x="2785" y="-99.8" font-family="Times,serif" font-size="14.00">ModelComponent</text>
</g>
<!-- ModelComponent&#45;&gt;AdminModule -->
<g id="edge30" class="edge">
<title>ModelComponent&#45;&gt;AdminModule</title>
<path fill="none" stroke="black" d="M2785,-122.03C2785,-138.4 2785,-160 2785,-160 2785,-160 3422.71,-160 3422.71,-160"/>
<polygon fill="black" stroke="black" points="3422.71,-163.5 3432.71,-160 3422.71,-156.5 3422.71,-163.5"/>
</g>
<!-- NewBoatComponent -->
<g id="node30" class="node">
<title>NewBoatComponent</title>
<polygon fill="#ffffb3" stroke="black" points="2708.2,-122 2573.8,-122 2573.8,-86 2708.2,-86 2708.2,-122"/>
<text text-anchor="middle" x="2641" y="-99.8" font-family="Times,serif" font-size="14.00">NewBoatComponent</text>
</g>
<!-- NewBoatComponent&#45;&gt;AdminModule -->
<g id="edge31" class="edge">
<title>NewBoatComponent&#45;&gt;AdminModule</title>
<path fill="none" stroke="black" d="M2641,-122.04C2641,-138.73 2641,-161 2641,-161 2641,-161 3422.53,-161 3422.53,-161"/>
<polygon fill="black" stroke="black" points="3422.53,-164.5 3432.53,-161 3422.53,-157.5 3422.53,-164.5"/>
</g>
<!-- NewCompleteJobComponent -->
<g id="node31" class="node">
<title>NewCompleteJobComponent</title>
<polygon fill="#ffffb3" stroke="black" points="2555.64,-122 2374.36,-122 2374.36,-86 2555.64,-86 2555.64,-122"/>
<text text-anchor="middle" x="2465" y="-99.8" font-family="Times,serif" font-size="14.00">NewCompleteJobComponent</text>
</g>
<!-- NewCompleteJobComponent&#45;&gt;AdminModule -->
<g id="edge32" class="edge">
<title>NewCompleteJobComponent&#45;&gt;AdminModule</title>
<path fill="none" stroke="black" d="M2465,-122.02C2465,-139.37 2465,-163 2465,-163 2465,-163 3422.6,-163 3422.6,-163"/>
<polygon fill="black" stroke="black" points="3422.6,-166.5 3432.6,-163 3422.6,-159.5 3422.6,-166.5"/>
</g>
<!-- NewJobComponent -->
<g id="node32" class="node">
<title>NewJobComponent</title>
<polygon fill="#ffffb3" stroke="black" points="2356.7,-122 2229.3,-122 2229.3,-86 2356.7,-86 2356.7,-122"/>
<text text-anchor="middle" x="2293" y="-99.8" font-family="Times,serif" font-size="14.00">NewJobComponent</text>
</g>
<!-- NewJobComponent&#45;&gt;AdminModule -->
<g id="edge33" class="edge">
<title>NewJobComponent&#45;&gt;AdminModule</title>
<path fill="none" stroke="black" d="M2293,-122C2293,-139.68 2293,-164 2293,-164 2293,-164 3422.42,-164 3422.42,-164"/>
<polygon fill="black" stroke="black" points="3422.42,-167.5 3432.42,-164 3422.42,-160.5 3422.42,-167.5"/>
</g>
<!-- NewOfferComponent -->
<g id="node33" class="node">
<title>NewOfferComponent</title>
<polygon fill="#ffffb3" stroke="black" points="2211.06,-122 2072.94,-122 2072.94,-86 2211.06,-86 2211.06,-122"/>
<text text-anchor="middle" x="2142" y="-99.8" font-family="Times,serif" font-size="14.00">NewOfferComponent</text>
</g>
<!-- NewOfferComponent&#45;&gt;AdminModule -->
<g id="edge34" class="edge">
<title>NewOfferComponent&#45;&gt;AdminModule</title>
<path fill="none" stroke="black" d="M2142,-122.3C2142,-140.27 2142,-165 2142,-165 2142,-165 3422.72,-165 3422.72,-165"/>
<polygon fill="black" stroke="black" points="3422.72,-168.5 3432.72,-165 3422.72,-161.5 3422.72,-168.5"/>
</g>
<!-- NotationComponent -->
<g id="node34" class="node">
<title>NotationComponent</title>
<polygon fill="#ffffb3" stroke="black" points="2055.33,-122 1924.67,-122 1924.67,-86 2055.33,-86 2055.33,-122"/>
<text text-anchor="middle" x="1990" y="-99.8" font-family="Times,serif" font-size="14.00">NotationComponent</text>
</g>
<!-- NotationComponent&#45;&gt;AdminModule -->
<g id="edge35" class="edge">
<title>NotationComponent&#45;&gt;AdminModule</title>
<path fill="none" stroke="black" d="M1990,-122.22C1990,-140.83 1990,-167 1990,-167 1990,-167 3422.36,-167 3422.36,-167"/>
<polygon fill="black" stroke="black" points="3422.36,-170.5 3432.36,-167 3422.36,-163.5 3422.36,-170.5"/>
</g>
<!-- NotationsComponent -->
<g id="node35" class="node">
<title>NotationsComponent</title>
<polygon fill="#ffffb3" stroke="black" points="1906.77,-122 1771.23,-122 1771.23,-86 1906.77,-86 1906.77,-122"/>
<text text-anchor="middle" x="1839" y="-99.8" font-family="Times,serif" font-size="14.00">NotationsComponent</text>
</g>
<!-- NotationsComponent&#45;&gt;AdminModule -->
<g id="edge36" class="edge">
<title>NotationsComponent&#45;&gt;AdminModule</title>
<path fill="none" stroke="black" d="M1839,-122.17C1839,-141.09 1839,-168 1839,-168 1839,-168 3422.38,-168 3422.38,-168"/>
<polygon fill="black" stroke="black" points="3422.38,-171.5 3432.38,-168 3422.38,-164.5 3422.38,-171.5"/>
</g>
<!-- OfferComponent -->
<g id="node36" class="node">
<title>OfferComponent</title>
<polygon fill="#ffffb3" stroke="black" points="1752.64,-122 1641.36,-122 1641.36,-86 1752.64,-86 1752.64,-122"/>
<text text-anchor="middle" x="1697" y="-99.8" font-family="Times,serif" font-size="14.00">OfferComponent</text>
</g>
<!-- OfferComponent&#45;&gt;AdminModule -->
<g id="edge37" class="edge">
<title>OfferComponent&#45;&gt;AdminModule</title>
<path fill="none" stroke="black" d="M1697,-122.11C1697,-141.34 1697,-169 1697,-169 1697,-169 3422.4,-169 3422.4,-169"/>
<polygon fill="black" stroke="black" points="3422.4,-172.5 3432.4,-169 3422.4,-165.5 3422.4,-172.5"/>
</g>
<!-- OffersComponent -->
<g id="node37" class="node">
<title>OffersComponent</title>
<polygon fill="#ffffb3" stroke="black" points="1623.58,-122 1506.42,-122 1506.42,-86 1623.58,-86 1623.58,-122"/>
<text text-anchor="middle" x="1565" y="-99.8" font-family="Times,serif" font-size="14.00">OffersComponent</text>
</g>
<!-- OffersComponent&#45;&gt;AdminModule -->
<g id="edge38" class="edge">
<title>OffersComponent&#45;&gt;AdminModule</title>
<path fill="none" stroke="black" d="M1565,-122.31C1565,-142.15 1565,-171 1565,-171 1565,-171 3422.69,-171 3422.69,-171"/>
<polygon fill="black" stroke="black" points="3422.69,-174.5 3432.69,-171 3422.69,-167.5 3422.69,-174.5"/>
</g>
<!-- PaimentsComponent -->
<g id="node38" class="node">
<title>PaimentsComponent</title>
<polygon fill="#ffffb3" stroke="black" points="1488.16,-122 1355.84,-122 1355.84,-86 1488.16,-86 1488.16,-122"/>
<text text-anchor="middle" x="1422" y="-99.8" font-family="Times,serif" font-size="14.00">PaimentsComponent</text>
</g>
<!-- PaimentsComponent&#45;&gt;AdminModule -->
<g id="edge39" class="edge">
<title>PaimentsComponent&#45;&gt;AdminModule</title>
<path fill="none" stroke="black" d="M1422,-122.22C1422,-142.37 1422,-172 1422,-172 1422,-172 3422.61,-172 3422.61,-172"/>
<polygon fill="black" stroke="black" points="3422.61,-175.5 3432.61,-172 3422.61,-168.5 3422.61,-175.5"/>
</g>
<!-- PersonalComponent -->
<g id="node39" class="node">
<title>PersonalComponent</title>
<polygon fill="#ffffb3" stroke="black" points="1337.54,-122 1208.46,-122 1208.46,-86 1337.54,-86 1337.54,-122"/>
<text text-anchor="middle" x="1273" y="-99.8" font-family="Times,serif" font-size="14.00">PersonalComponent</text>
</g>
<!-- PersonalComponent&#45;&gt;AdminModule -->
<g id="edge40" class="edge">
<title>PersonalComponent&#45;&gt;AdminModule</title>
<path fill="none" stroke="black" d="M1273,-122.03C1273,-142.77 1273,-174 1273,-174 1273,-174 3422.76,-174 3422.76,-174"/>
<polygon fill="black" stroke="black" points="3422.76,-177.5 3432.76,-174 3422.76,-170.5 3422.76,-177.5"/>
</g>
<!-- ProfilComponent -->
<g id="node40" class="node">
<title>ProfilComponent</title>
<polygon fill="#ffffb3" stroke="black" points="1190.72,-122 1077.28,-122 1077.28,-86 1190.72,-86 1190.72,-122"/>
<text text-anchor="middle" x="1134" y="-99.8" font-family="Times,serif" font-size="14.00">ProfilComponent</text>
</g>
<!-- ProfilComponent&#45;&gt;AdminModule -->
<g id="edge41" class="edge">
<title>ProfilComponent&#45;&gt;AdminModule</title>
<path fill="none" stroke="black" d="M1134,-122.28C1134,-143.32 1134,-175 1134,-175 1134,-175 3422.69,-175 3422.69,-175"/>
<polygon fill="black" stroke="black" points="3422.69,-178.5 3432.69,-175 3422.69,-171.5 3422.69,-178.5"/>
</g>
<!-- ResumesComponent -->
<g id="node41" class="node">
<title>ResumesComponent</title>
<polygon fill="#ffffb3" stroke="black" points="1058.88,-122 927.12,-122 927.12,-86 1058.88,-86 1058.88,-122"/>
<text text-anchor="middle" x="993" y="-99.8" font-family="Times,serif" font-size="14.00">ResumesComponent</text>
</g>
<!-- ResumesComponent&#45;&gt;AdminModule -->
<g id="edge42" class="edge">
<title>ResumesComponent&#45;&gt;AdminModule</title>
<path fill="none" stroke="black" d="M993,-122.17C993,-143.5 993,-176 993,-176 993,-176 3422.56,-176 3422.56,-176"/>
<polygon fill="black" stroke="black" points="3422.56,-179.5 3432.56,-176 3422.56,-172.5 3422.56,-179.5"/>
</g>
<!-- SailorComponent -->
<g id="node42" class="node">
<title>SailorComponent</title>
<polygon fill="#ffffb3" stroke="black" points="909.27,-122 794.73,-122 794.73,-86 909.27,-86 909.27,-122"/>
<text text-anchor="middle" x="852" y="-99.8" font-family="Times,serif" font-size="14.00">SailorComponent</text>
</g>
<!-- SailorComponent&#45;&gt;AdminModule -->
<g id="edge43" class="edge">
<title>SailorComponent&#45;&gt;AdminModule</title>
<path fill="none" stroke="black" d="M852,-122.29C852,-144.21 852,-178 852,-178 852,-178 3422.68,-178 3422.68,-178"/>
<polygon fill="black" stroke="black" points="3422.68,-181.5 3432.68,-178 3422.68,-174.5 3422.68,-181.5"/>
</g>
<!-- SailorJobsComponent -->
<g id="node43" class="node">
<title>SailorJobsComponent</title>
<polygon fill="#ffffb3" stroke="black" points="776.66,-122 637.34,-122 637.34,-86 776.66,-86 776.66,-122"/>
<text text-anchor="middle" x="707" y="-99.8" font-family="Times,serif" font-size="14.00">SailorJobsComponent</text>
</g>
<!-- SailorJobsComponent&#45;&gt;AdminModule -->
<g id="edge44" class="edge">
<title>SailorJobsComponent&#45;&gt;AdminModule</title>
<path fill="none" stroke="black" d="M707,-122.16C707,-144.35 707,-179 707,-179 707,-179 3422.66,-179 3422.66,-179"/>
<polygon fill="black" stroke="black" points="3422.66,-182.5 3432.66,-179 3422.66,-175.5 3422.66,-182.5"/>
</g>
<!-- SettingsComponent -->
<g id="node44" class="node">
<title>SettingsComponent</title>
<polygon fill="#ffffb3" stroke="black" points="619.45,-122 492.55,-122 492.55,-86 619.45,-86 619.45,-122"/>
<text text-anchor="middle" x="556" y="-99.8" font-family="Times,serif" font-size="14.00">SettingsComponent</text>
</g>
<!-- SettingsComponent&#45;&gt;AdminModule -->
<g id="edge45" class="edge">
<title>SettingsComponent&#45;&gt;AdminModule</title>
<path fill="none" stroke="black" d="M556,-122.25C556,-145.02 556,-181 556,-181 556,-181 3422.75,-181 3422.75,-181"/>
<polygon fill="black" stroke="black" points="3422.75,-184.5 3432.75,-181 3422.75,-177.5 3422.75,-184.5"/>
</g>
<!-- StatistiquesComponent -->
<g id="node45" class="node">
<title>StatistiquesComponent</title>
<polygon fill="#ffffb3" stroke="black" points="474.89,-122 329.11,-122 329.11,-86 474.89,-86 474.89,-122"/>
<text text-anchor="middle" x="402" y="-99.8" font-family="Times,serif" font-size="14.00">StatistiquesComponent</text>
</g>
<!-- StatistiquesComponent&#45;&gt;AdminModule -->
<g id="edge46" class="edge">
<title>StatistiquesComponent&#45;&gt;AdminModule</title>
<path fill="none" stroke="black" d="M402,-122.09C402,-145.13 402,-182 402,-182 402,-182 3422.69,-182 3422.69,-182"/>
<polygon fill="black" stroke="black" points="3422.69,-185.5 3432.69,-182 3422.69,-178.5 3422.69,-185.5"/>
</g>
<!-- TrainingsComponent -->
<g id="node46" class="node">
<title>TrainingsComponent</title>
<polygon fill="#ffffb3" stroke="black" points="311.49,-122 176.51,-122 176.51,-86 311.49,-86 311.49,-122"/>
<text text-anchor="middle" x="244" y="-99.8" font-family="Times,serif" font-size="14.00">TrainingsComponent</text>
</g>
<!-- TrainingsComponent&#45;&gt;AdminModule -->
<g id="edge47" class="edge">
<title>TrainingsComponent&#45;&gt;AdminModule</title>
<path fill="none" stroke="black" d="M244,-122.32C244,-145.66 244,-183 244,-183 244,-183 3422.76,-183 3422.76,-183"/>
<polygon fill="black" stroke="black" points="3422.76,-186.5 3432.76,-183 3422.76,-179.5 3422.76,-186.5"/>
</g>
<!-- VariablesComponent -->
<g id="node47" class="node">
<title>VariablesComponent</title>
<polygon fill="#ffffb3" stroke="black" points="158.47,-122 23.53,-122 23.53,-86 158.47,-86 158.47,-122"/>
<text text-anchor="middle" x="91" y="-99.8" font-family="Times,serif" font-size="14.00">VariablesComponent</text>
</g>
<!-- VariablesComponent&#45;&gt;AdminModule -->
<g id="edge48" class="edge">
<title>VariablesComponent&#45;&gt;AdminModule</title>
<path fill="none" stroke="black" d="M91,-122.38C91,-146.28 91,-185 91,-185 91,-185 3422.76,-185 3422.76,-185"/>
<polygon fill="black" stroke="black" points="3422.76,-188.5 3432.76,-185 3422.76,-181.5 3422.76,-188.5"/>
</g>
<!-- DegreesComponent  -->
<g id="node50" class="node">
<title>DegreesComponent </title>
<polygon fill="#fb8072" stroke="black" points="3698.19,-252 3567.81,-252 3567.81,-216 3698.19,-216 3698.19,-252"/>
<text text-anchor="middle" x="3633" y="-229.8" font-family="Times,serif" font-size="14.00">DegreesComponent </text>
</g>
<!-- AdminModule&#45;&gt;DegreesComponent  -->
<g id="edge50" class="edge">
<title>AdminModule&#45;&gt;DegreesComponent </title>
<path fill="none" stroke="black" stroke-dasharray="5,2" d="M3531.25,-186C3571.07,-186 3620.57,-186 3620.57,-186 3620.57,-186 3620.57,-205.85 3620.57,-205.85"/>
<polygon fill="black" stroke="black" points="3617.07,-205.85 3620.57,-215.85 3624.07,-205.85 3617.07,-205.85"/>
</g>
<!-- ResumesComponent  -->
<g id="node51" class="node">
<title>ResumesComponent </title>
<polygon fill="#fb8072" stroke="black" points="3549.88,-252 3414.12,-252 3414.12,-216 3549.88,-216 3549.88,-252"/>
<text text-anchor="middle" x="3482" y="-229.8" font-family="Times,serif" font-size="14.00">ResumesComponent </text>
</g>
<!-- AdminModule&#45;&gt;ResumesComponent  -->
<g id="edge51" class="edge">
<title>AdminModule&#45;&gt;ResumesComponent </title>
<path fill="none" stroke="black" stroke-dasharray="5,2" d="M3482,-187.11C3482,-187.11 3482,-205.99 3482,-205.99"/>
<polygon fill="black" stroke="black" points="3478.5,-205.99 3482,-215.99 3485.5,-205.99 3478.5,-205.99"/>
</g>
<!-- TrainingsComponent  -->
<g id="node52" class="node">
<title>TrainingsComponent </title>
<polygon fill="#fb8072" stroke="black" points="3396.49,-252 3257.51,-252 3257.51,-216 3396.49,-216 3396.49,-252"/>
<text text-anchor="middle" x="3327" y="-229.8" font-family="Times,serif" font-size="14.00">TrainingsComponent </text>
</g>
<!-- AdminModule&#45;&gt;TrainingsComponent  -->
<g id="edge52" class="edge">
<title>AdminModule&#45;&gt;TrainingsComponent </title>
<path fill="none" stroke="black" stroke-dasharray="5,2" d="M3432.66,-186C3396.4,-186 3353.43,-186 3353.43,-186 3353.43,-186 3353.43,-205.85 3353.43,-205.85"/>
<polygon fill="black" stroke="black" points="3349.93,-205.85 3353.43,-215.85 3356.93,-205.85 3349.93,-205.85"/>
</g>
<!-- AdminRoutingModule -->
<g id="node49" class="node">
<title>AdminRoutingModule</title>
<polygon fill="#8dd3c7" stroke="black" points="6992.56,-122 6989.56,-126 6968.56,-126 6965.56,-122 6849.44,-122 6849.44,-86 6992.56,-86 6992.56,-122"/>
<text text-anchor="middle" x="6921" y="-99.8" font-family="Times,serif" font-size="14.00">AdminRoutingModule</text>
</g>
<!-- AdminRoutingModule&#45;&gt;AdminModule -->
<g id="edge49" class="edge">
<title>AdminRoutingModule&#45;&gt;AdminModule</title>
<path fill="none" stroke="black" d="M6921,-122.38C6921,-146.28 6921,-185 6921,-185 6921,-185 3541.28,-185 3541.28,-185"/>
<polygon fill="black" stroke="black" points="3541.28,-181.5 3531.28,-185 3541.28,-188.5 3541.28,-181.5"/>
</g>
</g>
</svg>
