<?xml version="1.0" encoding="UTF-8" standalone="no"?>
<!DOCTYPE svg PUBLIC "-//W3C//DTD SVG 1.1//EN"
 "http://www.w3.org/Graphics/SVG/1.1/DTD/svg11.dtd">
<!-- Generated by graphviz version 2.47.0 (20210316.0004)
 -->
<!-- Title: dependencies Pages: 1 -->
<svg width="1362pt" height="284pt"
 viewBox="0.00 0.00 1362.00 284.00" xmlns="http://www.w3.org/2000/svg" xmlns:xlink="http://www.w3.org/1999/xlink">
<g id="graph0" class="graph" transform="scale(1 1) rotate(0) translate(4 280)">
<title>dependencies</title>
<polygon fill="white" stroke="transparent" points="-4,4 -4,-280 1358,-280 1358,4 -4,4"/>
<text text-anchor="start" x="656.01" y="-42.4" font-family="Times-12" font-weight="bold" font-size="14.00">Legend</text>
<polygon fill="#ffffb3" stroke="transparent" points="443,-10 443,-30 463,-30 463,-10 443,-10"/>
<text text-anchor="start" x="466.63" y="-15.4" font-family="Times-12" font-size="14.00"> &#160;Declarations</text>
<polygon fill="#8dd3c7" stroke="transparent" points="556,-10 556,-30 576,-30 576,-10 556,-10"/>
<text text-anchor="start" x="579.73" y="-15.4" font-family="Times-12" font-size="14.00"> &#160;Module</text>
<polygon fill="#80b1d3" stroke="transparent" points="642,-10 642,-30 662,-30 662,-10 642,-10"/>
<text text-anchor="start" x="665.78" y="-15.4" font-family="Times-12" font-size="14.00"> &#160;Bootstrap</text>
<polygon fill="#fdb462" stroke="transparent" points="739,-10 739,-30 759,-30 759,-10 739,-10"/>
<text text-anchor="start" x="762.67" y="-15.4" font-family="Times-12" font-size="14.00"> &#160;Providers</text>
<polygon fill="#fb8072" stroke="transparent" points="835,-10 835,-30 855,-30 855,-10 835,-10"/>
<text text-anchor="start" x="858.73" y="-15.4" font-family="Times-12" font-size="14.00"> &#160;Exports</text>
<g id="clust1" class="cluster">
<title>cluster_AppModule</title>
<polygon fill="none" stroke="black" stroke-dasharray="1,5" points="8,-70 8,-268 1346,-268 1346,-70 8,-70"/>
</g>
<g id="clust9" class="cluster">
<title>cluster_AppModule_imports</title>
<polygon fill="none" stroke="black" points="945,-78 945,-130 1338,-130 1338,-78 945,-78"/>
</g>
<g id="clust11" class="cluster">
<title>cluster_AppModule_bootstrap</title>
<polygon fill="none" stroke="black" points="652,-208 652,-260 776,-260 776,-208 652,-208"/>
</g>
<g id="clust2" class="cluster">
<title>cluster_AppModule_declarations</title>
<polygon fill="none" stroke="black" points="16,-78 16,-130 937,-130 937,-78 16,-78"/>
</g>
<!-- AdminPlusComponent -->
<g id="node1" class="node">
<title>AdminPlusComponent</title>
<polygon fill="#ffffb3" stroke="black" points="929.34,-122 784.66,-122 784.66,-86 929.34,-86 929.34,-122"/>
<text text-anchor="middle" x="857" y="-99.8" font-family="Times,serif" font-size="14.00">AdminPlusComponent</text>
</g>
<!-- AppModule -->
<g id="node7" class="node">
<title>AppModule</title>
<polygon fill="#8dd3c7" stroke="black" points="755.66,-187 752.66,-191 731.66,-191 728.66,-187 672.34,-187 672.34,-151 755.66,-151 755.66,-187"/>
<text text-anchor="middle" x="714" y="-164.8" font-family="Times,serif" font-size="14.00">AppModule</text>
</g>
<!-- AdminPlusComponent&#45;&gt;AppModule -->
<g id="edge1" class="edge">
<title>AdminPlusComponent&#45;&gt;AppModule</title>
<path fill="none" stroke="black" d="M857,-122.01C857,-138.05 857,-159 857,-159 857,-159 765.75,-159 765.75,-159"/>
<polygon fill="black" stroke="black" points="765.75,-155.5 755.75,-159 765.75,-162.5 765.75,-155.5"/>
</g>
<!-- AppComponent -->
<g id="node2" class="node">
<title>AppComponent</title>
<polygon fill="#ffffb3" stroke="black" points="766.94,-122 661.06,-122 661.06,-86 766.94,-86 766.94,-122"/>
<text text-anchor="middle" x="714" y="-99.8" font-family="Times,serif" font-size="14.00">AppComponent</text>
</g>
<!-- AppComponent&#45;&gt;AppModule -->
<g id="edge2" class="edge">
<title>AppComponent&#45;&gt;AppModule</title>
<path fill="none" stroke="black" d="M714,-122.11C714,-122.11 714,-140.99 714,-140.99"/>
<polygon fill="black" stroke="black" points="710.5,-140.99 714,-150.99 717.5,-140.99 710.5,-140.99"/>
</g>
<!-- ApprovalComponent -->
<g id="node3" class="node">
<title>ApprovalComponent</title>
<polygon fill="#ffffb3" stroke="black" points="643.2,-122 508.8,-122 508.8,-86 643.2,-86 643.2,-122"/>
<text text-anchor="middle" x="576" y="-99.8" font-family="Times,serif" font-size="14.00">ApprovalComponent</text>
</g>
<!-- ApprovalComponent&#45;&gt;AppModule -->
<g id="edge3" class="edge">
<title>ApprovalComponent&#45;&gt;AppModule</title>
<path fill="none" stroke="black" d="M576,-122.01C576,-138.05 576,-159 576,-159 576,-159 662.22,-159 662.22,-159"/>
<polygon fill="black" stroke="black" points="662.22,-162.5 672.22,-159 662.22,-155.5 662.22,-162.5"/>
</g>
<!-- KPIComponent -->
<g id="node4" class="node">
<title>KPIComponent</title>
<polygon fill="#ffffb3" stroke="black" points="490.88,-122 387.12,-122 387.12,-86 490.88,-86 490.88,-122"/>
<text text-anchor="middle" x="439" y="-99.8" font-family="Times,serif" font-size="14.00">KPIComponent</text>
</g>
<!-- KPIComponent&#45;&gt;AppModule -->
<g id="edge4" class="edge">
<title>KPIComponent&#45;&gt;AppModule</title>
<path fill="none" stroke="black" d="M439,-122.27C439,-140.56 439,-166 439,-166 439,-166 662.23,-166 662.23,-166"/>
<polygon fill="black" stroke="black" points="662.23,-169.5 672.23,-166 662.23,-162.5 662.23,-169.5"/>
</g>
<!-- SearchMissionComponent -->
<g id="node5" class="node">
<title>SearchMissionComponent</title>
<polygon fill="#ffffb3" stroke="black" points="369.04,-122 204.96,-122 204.96,-86 369.04,-86 369.04,-122"/>
<text text-anchor="middle" x="287" y="-99.8" font-family="Times,serif" font-size="14.00">SearchMissionComponent</text>
</g>
<!-- SearchMissionComponent&#45;&gt;AppModule -->
<g id="edge5" class="edge">
<title>SearchMissionComponent&#45;&gt;AppModule</title>
<path fill="none" stroke="black" d="M287,-122.13C287,-142.57 287,-173 287,-173 287,-173 662.28,-173 662.28,-173"/>
<polygon fill="black" stroke="black" points="662.28,-176.5 672.28,-173 662.28,-169.5 662.28,-176.5"/>
</g>
<!-- SearchSkipperComponent -->
<g id="node6" class="node">
<title>SearchSkipperComponent</title>
<polygon fill="#ffffb3" stroke="black" points="186.47,-122 23.53,-122 23.53,-86 186.47,-86 186.47,-122"/>
<text text-anchor="middle" x="105" y="-99.8" font-family="Times,serif" font-size="14.00">SearchSkipperComponent</text>
</g>
<!-- SearchSkipperComponent&#45;&gt;AppModule -->
<g id="edge6" class="edge">
<title>SearchSkipperComponent&#45;&gt;AppModule</title>
<path fill="none" stroke="black" d="M105,-122.01C105,-144.49 105,-180 105,-180 105,-180 662.14,-180 662.14,-180"/>
<polygon fill="black" stroke="black" points="662.14,-183.5 672.14,-180 662.14,-176.5 662.14,-183.5"/>
</g>
<!-- AppComponent  -->
<g id="node11" class="node">
<title>AppComponent </title>
<polygon fill="#80b1d3" stroke="black" points="768.44,-252 659.56,-252 659.56,-216 768.44,-216 768.44,-252"/>
<text text-anchor="middle" x="714" y="-229.8" font-family="Times,serif" font-size="14.00">AppComponent </text>
</g>
<!-- AppModule&#45;&gt;AppComponent  -->
<g id="edge10" class="edge">
<title>AppModule&#45;&gt;AppComponent </title>
<path fill="none" stroke="black" stroke-dasharray="1,5" d="M714,-187.11C714,-187.11 714,-205.99 714,-205.99"/>
<polygon fill="black" stroke="black" points="710.5,-205.99 714,-215.99 717.5,-205.99 710.5,-205.99"/>
</g>
<!-- AdminModule -->
<g id="node8" class="node">
<title>AdminModule</title>
<polygon fill="#8dd3c7" stroke="black" points="1330.44,-122 1327.44,-126 1306.44,-126 1303.44,-122 1231.56,-122 1231.56,-86 1330.44,-86 1330.44,-122"/>
<text text-anchor="middle" x="1281" y="-99.8" font-family="Times,serif" font-size="14.00">AdminModule</text>
</g>
<!-- AdminModule&#45;&gt;AppModule -->
<g id="edge7" class="edge">
<title>AdminModule&#45;&gt;AppModule</title>
<path fill="none" stroke="black" d="M1281,-122.01C1281,-144.49 1281,-180 1281,-180 1281,-180 765.69,-180 765.69,-180"/>
<polygon fill="black" stroke="black" points="765.69,-176.5 755.69,-180 765.69,-183.5 765.69,-176.5"/>
</g>
<!-- AppRoutingModule -->
<g id="node9" class="node">
<title>AppRoutingModule</title>
<polygon fill="#8dd3c7" stroke="black" points="1213.27,-122 1210.27,-126 1189.27,-126 1186.27,-122 1084.73,-122 1084.73,-86 1213.27,-86 1213.27,-122"/>
<text text-anchor="middle" x="1149" y="-99.8" font-family="Times,serif" font-size="14.00">AppRoutingModule</text>
</g>
<!-- AppRoutingModule&#45;&gt;AppModule -->
<g id="edge8" class="edge">
<title>AppRoutingModule&#45;&gt;AppModule</title>
<path fill="none" stroke="black" d="M1149,-122.13C1149,-142.57 1149,-173 1149,-173 1149,-173 765.71,-173 765.71,-173"/>
<polygon fill="black" stroke="black" points="765.71,-169.5 755.71,-173 765.71,-176.5 765.71,-169.5"/>
</g>
<!-- GraphQLModule -->
<g id="node10" class="node">
<title>GraphQLModule</title>
<polygon fill="#8dd3c7" stroke="black" points="1066.69,-122 1063.69,-126 1042.69,-126 1039.69,-122 953.31,-122 953.31,-86 1066.69,-86 1066.69,-122"/>
<text text-anchor="middle" x="1010" y="-99.8" font-family="Times,serif" font-size="14.00">GraphQLModule</text>
</g>
<!-- GraphQLModule&#45;&gt;AppModule -->
<g id="edge9" class="edge">
<title>GraphQLModule&#45;&gt;AppModule</title>
<path fill="none" stroke="black" d="M1010,-122.27C1010,-140.56 1010,-166 1010,-166 1010,-166 765.78,-166 765.78,-166"/>
<polygon fill="black" stroke="black" points="765.78,-162.5 755.78,-166 765.78,-169.5 765.78,-162.5"/>
</g>
</g>
</svg>
